<svg id="my-svg" width="100%" xmlns="http://www.w3.org/2000/svg" xmlns:xlink="http://www.w3.org/1999/xlink" class="classDiagram" style="max-width: 560.672px; background-color: white;" viewBox="0 0 560.671875 554" role="graphics-document document" aria-roledescription="class"><style>#my-svg{font-family:"trebuchet ms",verdana,arial,sans-serif;font-size:16px;fill:#333;}@keyframes edge-animation-frame{from{stroke-dashoffset:0;}}@keyframes dash{to{stroke-dashoffset:0;}}#my-svg .edge-animation-slow{stroke-dasharray:9,5!important;stroke-dashoffset:900;animation:dash 50s linear infinite;stroke-linecap:round;}#my-svg .edge-animation-fast{stroke-dasharray:9,5!important;stroke-dashoffset:900;animation:dash 20s linear infinite;stroke-linecap:round;}#my-svg .error-icon{fill:#552222;}#my-svg .error-text{fill:#552222;stroke:#552222;}#my-svg .edge-thickness-normal{stroke-width:1px;}#my-svg .edge-thickness-thick{stroke-width:3.5px;}#my-svg .edge-pattern-solid{stroke-dasharray:0;}#my-svg .edge-thickness-invisible{stroke-width:0;fill:none;}#my-svg .edge-pattern-dashed{stroke-dasharray:3;}#my-svg .edge-pattern-dotted{stroke-dasharray:2;}#my-svg .marker{fill:#333333;stroke:#333333;}#my-svg .marker.cross{stroke:#333333;}#my-svg svg{font-family:"trebuchet ms",verdana,arial,sans-serif;font-size:16px;}#my-svg p{margin:0;}#my-svg g.classGroup text{fill:#9370DB;stroke:none;font-family:"trebuchet ms",verdana,arial,sans-serif;font-size:10px;}#my-svg g.classGroup text .title{font-weight:bolder;}#my-svg .cluster-label text{fill:#333;}#my-svg .cluster-label span{color:#333;}#my-svg .cluster-label span p{background-color:transparent;}#my-svg .cluster rect{fill:#ffffde;stroke:#aaaa33;stroke-width:1px;}#my-svg .cluster text{fill:#333;}#my-svg .cluster span{color:#333;}#my-svg .nodeLabel,#my-svg .edgeLabel{color:#131300;}#my-svg .noteLabel .nodeLabel,#my-svg .noteLabel .edgeLabel{color:black;}#my-svg .edgeLabel .label rect{fill:#ECECFF;}#my-svg .label text{fill:#131300;}#my-svg .labelBkg{background:#ECECFF;}#my-svg .edgeLabel .label span{background:#ECECFF;}#my-svg .classTitle{font-weight:bolder;}#my-svg .node rect,#my-svg .node circle,#my-svg .node ellipse,#my-svg .node polygon,#my-svg .node path{fill:#ECECFF;stroke:#9370DB;stroke-width:1;}#my-svg .divider{stroke:#9370DB;stroke-width:1;}#my-svg g.clickable{cursor:pointer;}#my-svg g.classGroup rect{fill:#ECECFF;stroke:#9370DB;}#my-svg g.classGroup line{stroke:#9370DB;stroke-width:1;}#my-svg .classLabel .box{stroke:none;stroke-width:0;fill:#ECECFF;opacity:0.5;}#my-svg .classLabel .label{fill:#9370DB;font-size:10px;}#my-svg .relation{stroke:#333333;stroke-width:1;fill:none;}#my-svg .dashed-line{stroke-dasharray:3;}#my-svg .dotted-line{stroke-dasharray:1 2;}#my-svg [id$="-compositionStart"],#my-svg .composition{fill:#333333!important;stroke:#333333!important;stroke-width:1;}#my-svg [id$="-compositionEnd"],#my-svg .composition{fill:#333333!important;stroke:#333333!important;stroke-width:1;}#my-svg [id$="-dependencyStart"],#my-svg .dependency{fill:#333333!important;stroke:#333333!important;stroke-width:1;}#my-svg [id$="-dependencyEnd"],#my-svg .dependency{fill:#333333!important;stroke:#333333!important;stroke-width:1;}#my-svg [id$="-extensionStart"],#my-svg .extension{fill:transparent!important;stroke:#333333!important;stroke-width:1;}#my-svg [id$="-extensionEnd"],#my-svg .extension{fill:transparent!important;stroke:#333333!important;stroke-width:1;}#my-svg [id$="-aggregationStart"],#my-svg .aggregation{fill:transparent!important;stroke:#333333!important;stroke-width:1;}#my-svg [id$="-aggregationEnd"],#my-svg .aggregation{fill:transparent!important;stroke:#333333!important;stroke-width:1;}#my-svg [id$="-lollipopStart"],#my-svg .lollipop{fill:#ECECFF!important;stroke:#333333!important;stroke-width:1;}#my-svg [id$="-lollipopEnd"],#my-svg .lollipop{fill:#ECECFF!important;stroke:#333333!important;stroke-width:1;}#my-svg .edgeTerminals{font-size:11px;line-height:initial;}#my-svg .classTitleText{text-anchor:middle;font-size:18px;fill:#333;}#my-svg .edgeLabel[data-look="neo"]{background-color:rgba(232,232,232, 0.8);text-align:center;}#my-svg .edgeLabel[data-look="neo"] p{background-color:rgba(232,232,232, 0.8);}#my-svg .edgeLabel[data-look="neo"] rect{opacity:0.5;background-color:rgba(232,232,232, 0.8);fill:rgba(232,232,232, 0.8);}#my-svg .label-icon{display:inline-block;height:1em;overflow:visible;vertical-align:-0.125em;}#my-svg .node .label-icon path{fill:currentColor;stroke:revert;stroke-width:revert;}#my-svg .node .neo-node{stroke:#9370DB;}#my-svg [data-look="neo"].node rect,#my-svg [data-look="neo"].cluster rect,#my-svg [data-look="neo"].node polygon{stroke:#9370DB;filter:drop-shadow(1px 2px 2px rgba(185, 185, 185, 1));}#my-svg [data-look="neo"].node path{stroke:#9370DB;stroke-width:1px;}#my-svg [data-look="neo"].node .outer-path{filter:drop-shadow(1px 2px 2px rgba(185, 185, 185, 1));}#my-svg [data-look="neo"].node .neo-line path{stroke:#9370DB;filter:none;}#my-svg [data-look="neo"].node circle{stroke:#9370DB;filter:drop-shadow(1px 2px 2px rgba(185, 185, 185, 1));}#my-svg [data-look="neo"].node circle .state-start{fill:#000000;}#my-svg [data-look="neo"].icon-shape .icon{fill:#9370DB;filter:drop-shadow(1px 2px 2px rgba(185, 185, 185, 1));}#my-svg [data-look="neo"].icon-shape .icon-neo path{stroke:#9370DB;filter:drop-shadow(1px 2px 2px rgba(185, 185, 185, 1));}#my-svg :root{--mermaid-font-family:"trebuchet ms",verdana,arial,sans-serif;}</style><g><defs><marker id="my-svg_class-aggregationStart" class="marker aggregation class" refX="18" refY="7" markerWidth="190" markerHeight="240" orient="auto"><path d="M 18,7 L9,13 L1,7 L9,1 Z"/></marker></defs><defs><marker id="my-svg_class-aggregationEnd" class="marker aggregation class" refX="1" refY="7" markerWidth="20" markerHeight="28" orient="auto"><path d="M 18,7 L9,13 L1,7 L9,1 Z"/></marker></defs><defs><marker id="my-svg_class-aggregationStart-margin" class="marker aggregation class" refX="15" refY="7" markerWidth="190" markerHeight="240" orient="auto" markerUnits="userSpaceOnUse"><path d="M 18,7 L9,13 L1,7 L9,1 Z" style="stroke-width: 2;"/></marker></defs><defs><marker id="my-svg_class-aggregationEnd-margin" class="marker aggregation class" refX="1" refY="7" markerWidth="20" markerHeight="28" orient="auto" markerUnits="userSpaceOnUse"><path d="M 18,7 L9,13 L1,7 L9,1 Z" style="stroke-width: 2;"/></marker></defs><defs><marker id="my-svg_class-extensionStart" class="marker extension class" refX="18" refY="7" markerWidth="20" markerHeight="28" orient="auto" markerUnits="userSpaceOnUse"><path d="M 1,7 L18,13 V 1 Z"/></marker></defs><defs><marker id="my-svg_class-extensionEnd" class="marker extension class" refX="1" refY="7" markerWidth="20" markerHeight="28" orient="auto"><path d="M 1,1 V 13 L18,7 Z"/></marker></defs><marker id="my-svg_class-extensionStart-margin" class="marker extension class" refX="18" refY="7" markerWidth="20" markerHeight="28" orient="auto" markerUnits="userSpaceOnUse" viewBox="0 0 20 14"><polygon points="10,7 18,13 18,1" style="stroke-width: 2; stroke-dasharray: 0;"/></marker><defs><marker id="my-svg_class-extensionEnd-margin" class="marker extension class" refX="9" refY="7" markerWidth="20" markerHeight="28" orient="auto" markerUnits="userSpaceOnUse" viewBox="0 0 20 14"><polygon points="10,1 10,13 18,7" style="stroke-width: 2; stroke-dasharray: 0;"/></marker></defs><defs><marker id="my-svg_class-compositionStart" class="marker composition class" refX="18" refY="7" markerWidth="190" markerHeight="240" orient="auto"><path d="M 18,7 L9,13 L1,7 L9,1 Z"/></marker></defs><defs><marker id="my-svg_class-compositionEnd" class="marker composition class" refX="1" refY="7" markerWidth="20" markerHeight="28" orient="auto"><path d="M 18,7 L9,13 L1,7 L9,1 Z"/></marker></defs><defs><marker id="my-svg_class-compositionStart-margin" class="marker composition class" refX="15" refY="7" markerWidth="190" markerHeight="240" orient="auto" markerUnits="userSpaceOnUse"><path viewBox="0 0 15 15" d="M 18,7 L9,13 L1,7 L9,1 Z" style="stroke-width: 0;"/></marker></defs><defs><marker id="my-svg_class-compositionEnd-margin" class="marker composition class" refX="3.5" refY="7" markerWidth="20" markerHeight="28" orient="auto" markerUnits="userSpaceOnUse"><path d="M 18,7 L9,13 L1,7 L9,1 Z" style="stroke-width: 0;"/></marker></defs><defs><marker id="my-svg_class-dependencyStart" class="marker dependency class" refX="6" refY="7" markerWidth="190" markerHeight="240" orient="auto"><path d="M 5,7 L9,13 L1,7 L9,1 Z"/></marker></defs><defs><marker id="my-svg_class-dependencyEnd" class="marker dependency class" refX="13" refY="7" markerWidth="20" markerHeight="28" orient="auto"><path d="M 18,7 L9,13 L14,7 L9,1 Z"/></marker></defs><defs><marker id="my-svg_class-dependencyStart-margin" class="marker dependency class" refX="4" refY="7" markerWidth="190" markerHeight="240" orient="auto" markerUnits="userSpaceOnUse"><path d="M 5,7 L9,13 L1,7 L9,1 Z" style="stroke-width: 0;"/></marker></defs><defs><marker id="my-svg_class-dependencyEnd-margin" class="marker dependency class" refX="16" refY="7" markerWidth="20" markerHeight="28" orient="auto" markerUnits="userSpaceOnUse"><path d="M 18,7 L9,13 L14,7 L9,1 Z" style="stroke-width: 0;"/></marker></defs><defs><marker id="my-svg_class-lollipopStart" class="marker lollipop class" refX="13" refY="7" markerWidth="190" markerHeight="240" orient="auto"><circle fill="transparent" cx="7" cy="7" r="6"/></marker></defs><defs><marker id="my-svg_class-lollipopEnd" class="marker lollipop class" refX="1" refY="7" markerWidth="190" markerHeight="240" orient="auto"><circle fill="transparent" cx="7" cy="7" r="6"/></marker></defs><defs><marker id="my-svg_class-lollipopStart-margin" class="marker lollipop class" refX="13" refY="7" markerWidth="190" markerHeight="240" orient="auto" markerUnits="userSpaceOnUse"><circle fill="transparent" cx="7" cy="7" r="6" stroke-width="2"/></marker></defs><defs><marker id="my-svg_class-lollipopEnd-margin" class="marker lollipop class" refX="1" refY="7" markerWidth="190" markerHeight="240" orient="auto" markerUnits="userSpaceOnUse"><circle fill="transparent" cx="7" cy="7" r="6" stroke-width="2"/></marker></defs><g class="root"><g class="clusters"/><g class="edgePaths"><path d="M153.467,361.628L149.658,364.19C145.849,366.752,138.231,371.876,134.422,378.605C130.613,385.333,130.613,393.667,130.613,397.833L130.613,402" id="my-svg-id_Notifier_MailNotifier_1" class="edge-thickness-normal edge-pattern-dashed relation" style=";;;" data-edge="true" data-et="edge" data-id="id_Notifier_MailNotifier_1" data-points="W3sieCI6MTY3Ljc4MDI3MzQzNzUsInkiOjM1Mn0seyJ4IjoxMzAuNjEzMjgxMjUsInkiOjM3N30seyJ4IjoxMzAuNjEzMjgxMjUsInkiOjQwMn1d" data-look="classic" marker-start="url(#my-svg_class-extensionStart)"/><path d="M405.096,361.628L408.904,364.19C412.713,366.752,420.331,371.876,424.14,378.605C427.949,385.333,427.949,393.667,427.949,397.833L427.949,402" id="my-svg-id_Notifier_SlackNotifier_2" class="edge-thickness-normal edge-pattern-dashed relation" style=";;;" data-edge="true" data-et="edge" data-id="id_Notifier_SlackNotifier_2" data-points="W3sieCI6MzkwLjc4MjIyNjU2MjUsInkiOjM1Mn0seyJ4Ijo0MjcuOTQ5MjE4NzUsInkiOjM3N30seyJ4Ijo0MjcuOTQ5MjE4NzUsInkiOjQwMn1d" data-look="classic" marker-start="url(#my-svg_class-extensionStart)"/><path d="M279.281,169.25L279.281,170.542C279.281,171.833,279.281,174.417,279.281,179.875C279.281,185.333,279.281,193.667,279.281,197.833L279.281,202" id="my-svg-id_Dispatcher_Notifier_3" class="edge-thickness-normal edge-pattern-solid relation" style=";;;" data-edge="true" data-et="edge" data-id="id_Dispatcher_Notifier_3" data-points="W3sieCI6Mjc5LjI4MTI1LCJ5IjoxNTJ9LHsieCI6Mjc5LjI4MTI1LCJ5IjoxNzd9LHsieCI6Mjc5LjI4MTI1LCJ5IjoyMDJ9XQ==" data-look="classic" marker-start="url(#my-svg_class-aggregationStart)"/></g><g class="edgeLabels"><g class="edgeLabel"><g class="label" data-id="id_Notifier_MailNotifier_1" transform="translate(0, 0)"><foreignObject width="0" height="0"><div xmlns="http://www.w3.org/1999/xhtml" class="labelBkg" style="display: table-cell; white-space: nowrap; line-height: 1.5; max-width: 200px; text-align: center;"><span class="edgeLabel"></span></div></foreignObject></g></g><g class="edgeLabel"><g class="label" data-id="id_Notifier_SlackNotifier_2" transform="translate(0, 0)"><foreignObject width="0" height="0"><div xmlns="http://www.w3.org/1999/xhtml" class="labelBkg" style="display: table-cell; white-space: nowrap; line-height: 1.5; max-width: 200px; text-align: center;"><span class="edgeLabel"></span></div></foreignObject></g></g><g class="edgeLabel"><g class="label" data-id="id_Dispatcher_Notifier_3" transform="translate(0, 0)"><foreignObject width="0" height="0"><div xmlns="http://www.w3.org/1999/xhtml" class="labelBkg" style="display: table-cell; white-space: nowrap; line-height: 1.5; max-width: 200px; text-align: center;"><span class="edgeLabel"></span></div></foreignObject></g></g></g><g class="nodes"><g class="node default" id="my-svg-classId-Notifier-0" data-look="classic" transform="translate(279.28125, 277)"><g class="basic label-container outer-path"><path d="M-121.3203125 -75 L121.3203125 -75 L121.3203125 75 L-121.3203125 75" stroke="none" stroke-width="0" fill="#ECECFF" style=""/><path d="M-121.3203125 -75 C-66.93364683310679 -75, -12.54698116621357 -75, 121.3203125 -75 M-121.3203125 -75 C-47.14907518946731 -75, 27.022162121065378 -75, 121.3203125 -75 M121.3203125 -75 C121.3203125 -20.785104107840716, 121.3203125 33.42979178431857, 121.3203125 75 M121.3203125 -75 C121.3203125 -41.04119593751002, 121.3203125 -7.082391875020036, 121.3203125 75 M121.3203125 75 C61.350108679394715 75, 1.3799048587894305 75, -121.3203125 75 M121.3203125 75 C66.94344905366708 75, 12.566585607334176 75, -121.3203125 75 M-121.3203125 75 C-121.3203125 37.2514689404601, -121.3203125 -0.4970621190797999, -121.3203125 -75 M-121.3203125 75 C-121.3203125 29.56440512454588, -121.3203125 -15.871189750908243, -121.3203125 -75" stroke="#9370DB" stroke-width="1.3" fill="none" stroke-dasharray="0 0" style=""/></g><g class="annotation-group text" transform="translate(-41.171875, -51)"><g class="label" style="" transform="translate(0,-12)"><foreignObject width="82.34375" height="24"><div xmlns="http://www.w3.org/1999/xhtml" style="display: table-cell; white-space: nowrap; line-height: 1.5; max-width: 122px; text-align: center;"><span class="nodeLabel markdown-node-label" style=""><p>«interface»</p></span></div></foreignObject></g></g><g class="label-group text" transform="translate(-28.7890625, -27)"><g class="label" style="font-weight: bolder" transform="translate(0,-12)"><foreignObject width="57.578125" height="24"><div xmlns="http://www.w3.org/1999/xhtml" style="display: table-cell; white-space: nowrap; line-height: 1.5; max-width: 101px; text-align: center;"><span class="nodeLabel markdown-node-label" style=""><p>Notifier</p></span></div></foreignObject></g></g><g class="members-group text" transform="translate(-109.3203125, 21)"/><g class="methods-group text" transform="translate(-109.3203125, 51)"><g class="label" style="" transform="translate(0,-12)"><foreignObject width="177.46875" height="24"><div xmlns="http://www.w3.org/1999/xhtml" style="display: table-cell; white-space: nowrap; line-height: 1.5; max-width: 214px; text-align: center;"><span class="nodeLabel markdown-node-label" style=""><p>+send(msg string) : error</p></span></div></foreignObject></g></g><g class="divider" style=""><path d="M-121.3203125 -3 C-55.49161813479715 -2.999728698793266, 10.3370762304057 -2.999457397586532, 121.3203125 -2.999 M-121.3203125 -3 C-59.66056171524666 -2.999745880349654, 1.9991890695066843 -2.999491760699308, 121.3203125 -2.999" stroke="#9370DB" stroke-width="1.3" fill="none" stroke-dasharray="0 0" style=""/></g><g class="divider" style=""><path d="M-121.3203125 21 C-35.905861001207214 21.00035202040672, 49.50859049758557 21.000704040813435, 121.3203125 21.001 M-121.3203125 21 C-69.65508526110253 21.000212929006587, -17.989858022205055 21.000425858013173, 121.3203125 21.001" stroke="#9370DB" stroke-width="1.3" fill="none" stroke-dasharray="0 0" style=""/></g></g><g class="node default" id="my-svg-classId-MailNotifier-1" data-look="classic" transform="translate(130.61328125, 474)"><g class="basic label-container outer-path"><path d="M-122.61328125 -72 L122.61328125 -72 L122.61328125 72 L-122.61328125 72" stroke="none" stroke-width="0" fill="#ECECFF" style=""/><path d="M-122.61328125 -72 C-65.44610734751063 -72, -8.278933445021252 -72, 122.61328125 -72 M-122.61328125 -72 C-68.36164295224648 -72, -14.110004654492968 -72, 122.61328125 -72 M122.61328125 -72 C122.61328125 -14.897973818580574, 122.61328125 42.20405236283885, 122.61328125 72 M122.61328125 -72 C122.61328125 -15.247794705457139, 122.61328125 41.50441058908572, 122.61328125 72 M122.61328125 72 C30.62313806365377 72, -61.36700512269246 72, -122.61328125 72 M122.61328125 72 C49.9629508726495 72, -22.687379504701 72, -122.61328125 72 M-122.61328125 72 C-122.61328125 16.501893196163707, -122.61328125 -38.99621360767259, -122.61328125 -72 M-122.61328125 72 C-122.61328125 26.414921466001573, -122.61328125 -19.170157067996854, -122.61328125 -72" stroke="#9370DB" stroke-width="1.3" fill="none" stroke-dasharray="0 0" style=""/></g><g class="annotation-group text" transform="translate(0, -48)"/><g class="label-group text" transform="translate(-43.7578125, -48)"><g class="label" style="font-weight: bolder" transform="translate(0,-12)"><foreignObject width="87.515625" height="24"><div xmlns="http://www.w3.org/1999/xhtml" style="display: table-cell; white-space: nowrap; line-height: 1.5; max-width: 131px; text-align: center;"><span class="nodeLabel markdown-node-label" style=""><p>MailNotifier</p></span></div></foreignObject></g></g><g class="members-group text" transform="translate(-110.61328125, 0)"><g class="label" style="" transform="translate(0,-12)"><foreignObject width="83.734375" height="24"><div xmlns="http://www.w3.org/1999/xhtml" style="display: table-cell; white-space: nowrap; line-height: 1.5; max-width: 131px; text-align: center;"><span class="nodeLabel markdown-node-label" style=""><p>+host string</p></span></div></foreignObject></g></g><g class="methods-group text" transform="translate(-110.61328125, 48)"><g class="label" style="" transform="translate(0,-12)"><foreignObject width="177.46875" height="24"><div xmlns="http://www.w3.org/1999/xhtml" style="display: table-cell; white-space: nowrap; line-height: 1.5; max-width: 214px; text-align: center;"><span class="nodeLabel markdown-node-label" style=""><p>+send(msg string) : error</p></span></div></foreignObject></g></g><g class="divider" style=""><path d="M-122.61328125 -24 C-32.20849505252073 -23.999631341787463, 58.196291144958536 -23.999262683574926, 122.61328125 -23.999 M-122.61328125 -24 C-30.483412356041498 -23.999624307138856, 61.646456537917004 -23.99924861427771, 122.61328125 -23.999" stroke="#9370DB" stroke-width="1.3" fill="none" stroke-dasharray="0 0" style=""/></g><g class="divider" style=""><path d="M-122.61328125 24 C-30.44693372967501 24.000375841615934, 61.71941379064998 24.000751683231872, 122.61328125 24.001 M-122.61328125 24 C-55.51680643325207 24.000273610142933, 11.579668383495857 24.000547220285867, 122.61328125 24.001" stroke="#9370DB" stroke-width="1.3" fill="none" stroke-dasharray="0 0" style=""/></g></g><g class="node default" id="my-svg-classId-SlackNotifier-2" data-look="classic" transform="translate(427.94921875, 474)"><g class="basic label-container outer-path"><path d="M-124.72265625 -72 L124.72265625 -72 L124.72265625 72 L-124.72265625 72" stroke="none" stroke-width="0" fill="#ECECFF" style=""/><path d="M-124.72265625 -72 C-49.99998416969372 -72, 24.722687910612564 -72, 124.72265625 -72 M-124.72265625 -72 C-68.13863188329154 -72, -11.554607516583076 -72, 124.72265625 -72 M124.72265625 -72 C124.72265625 -21.652377769397212, 124.72265625 28.695244461205576, 124.72265625 72 M124.72265625 -72 C124.72265625 -36.97371463020516, 124.72265625 -1.947429260410317, 124.72265625 72 M124.72265625 72 C56.119105125558264 72, -12.484445998883473 72, -124.72265625 72 M124.72265625 72 C30.620497267222262 72, -63.481661715555475 72, -124.72265625 72 M-124.72265625 72 C-124.72265625 28.37728907362939, -124.72265625 -15.245421852741217, -124.72265625 -72 M-124.72265625 72 C-124.72265625 37.165781051825824, -124.72265625 2.331562103651649, -124.72265625 -72" stroke="#9370DB" stroke-width="1.3" fill="none" stroke-dasharray="0 0" style=""/></g><g class="annotation-group text" transform="translate(0, -48)"/><g class="label-group text" transform="translate(-47.9765625, -48)"><g class="label" style="font-weight: bolder" transform="translate(0,-12)"><foreignObject width="95.953125" height="24"><div xmlns="http://www.w3.org/1999/xhtml" style="display: table-cell; white-space: nowrap; line-height: 1.5; max-width: 136px; text-align: center;"><span class="nodeLabel markdown-node-label" style=""><p>SlackNotifier</p></span></div></foreignObject></g></g><g class="members-group text" transform="translate(-112.72265625, 0)"><g class="label" style="" transform="translate(0,-12)"><foreignObject width="117.125" height="24"><div xmlns="http://www.w3.org/1999/xhtml" style="display: table-cell; white-space: nowrap; line-height: 1.5; max-width: 163px; text-align: center;"><span class="nodeLabel markdown-node-label" style=""><p>+webhook string</p></span></div></foreignObject></g></g><g class="methods-group text" transform="translate(-112.72265625, 48)"><g class="label" style="" transform="translate(0,-12)"><foreignObject width="177.46875" height="24"><div xmlns="http://www.w3.org/1999/xhtml" style="display: table-cell; white-space: nowrap; line-height: 1.5; max-width: 214px; text-align: center;"><span class="nodeLabel markdown-node-label" style=""><p>+send(msg string) : error</p></span></div></foreignObject></g></g><g class="divider" style=""><path d="M-124.72265625 -24 C-60.93435921977751 -23.99974427943187, 2.8539378104449753 -23.999488558863735, 124.72265625 -23.999 M-124.72265625 -24 C-60.70693057865138 -23.999743367694386, 3.3087950926972383 -23.99948673538877, 124.72265625 -23.999" stroke="#9370DB" stroke-width="1.3" fill="none" stroke-dasharray="0 0" style=""/></g><g class="divider" style=""><path d="M-124.72265625 24 C-48.86534616923356 24.000304103971008, 26.991963911532878 24.00060820794202, 124.72265625 24.001 M-124.72265625 24 C-47.78278739552064 24.000308443835177, 29.157081458958714 24.000616887670354, 124.72265625 24.001" stroke="#9370DB" stroke-width="1.3" fill="none" stroke-dasharray="0 0" style=""/></g></g><g class="node default" id="my-svg-classId-Dispatcher-3" data-look="classic" transform="translate(279.28125, 80)"><g class="basic label-container outer-path"><path d="M-108.6640625 -72 L108.6640625 -72 L108.6640625 72 L-108.6640625 72" stroke="none" stroke-width="0" fill="#ECECFF" style=""/><path d="M-108.6640625 -72 C-28.558592057509017 -72, 51.546878384981966 -72, 108.6640625 -72 M-108.6640625 -72 C-45.072050640212865 -72, 18.51996121957427 -72, 108.6640625 -72 M108.6640625 -72 C108.6640625 -42.69432550445015, 108.6640625 -13.388651008900304, 108.6640625 72 M108.6640625 -72 C108.6640625 -25.88012302079487, 108.6640625 20.23975395841026, 108.6640625 72 M108.6640625 72 C37.24177394371846 72, -34.18051461256309 72, -108.6640625 72 M108.6640625 72 C30.89765597370362 72, -46.86875055259276 72, -108.6640625 72 M-108.6640625 72 C-108.6640625 33.96782654195816, -108.6640625 -4.064346916083679, -108.6640625 -72 M-108.6640625 72 C-108.6640625 29.636458970675932, -108.6640625 -12.727082058648136, -108.6640625 -72" stroke="#9370DB" stroke-width="1.3" fill="none" stroke-dasharray="0 0" style=""/></g><g class="annotation-group text" transform="translate(0, -48)"/><g class="label-group text" transform="translate(-39.921875, -48)"><g class="label" style="font-weight: bolder" transform="translate(0,-12)"><foreignObject width="79.84375" height="24"><div xmlns="http://www.w3.org/1999/xhtml" style="display: table-cell; white-space: nowrap; line-height: 1.5; max-width: 119px; text-align: center;"><span class="nodeLabel markdown-node-label" style=""><p>Dispatcher</p></span></div></foreignObject></g></g><g class="members-group text" transform="translate(-96.6640625, 0)"><g class="label" style="" transform="translate(0,-12)"><foreignObject width="128.125" height="24"><div xmlns="http://www.w3.org/1999/xhtml" style="display: table-cell; white-space: nowrap; line-height: 1.5; max-width: 168px; text-align: center;"><span class="nodeLabel markdown-node-label" style=""><p>-targets []Notifier</p></span></div></foreignObject></g></g><g class="methods-group text" transform="translate(-96.6640625, 48)"><g class="label" style="" transform="translate(0,-12)"><foreignObject width="153.40625" height="24"><div xmlns="http://www.w3.org/1999/xhtml" style="display: table-cell; white-space: nowrap; line-height: 1.5; max-width: 195px; text-align: center;"><span class="nodeLabel markdown-node-label" style=""><p>+dispatch(msg string)</p></span></div></foreignObject></g></g><g class="divider" style=""><path d="M-108.6640625 -24 C-24.5989545606661 -23.999613188086265, 59.4661533786678 -23.999226376172533, 108.6640625 -23.999 M-108.6640625 -24 C-38.8108485577785 -23.999678581803703, 31.042365384443002 -23.999357163607403, 108.6640625 -23.999" stroke="#9370DB" stroke-width="1.3" fill="none" stroke-dasharray="0 0" style=""/></g><g class="divider" style=""><path d="M-108.6640625 24 C-49.792238493950144 24.000270889117576, 9.079585512099712 24.000541778235156, 108.6640625 24.001 M-108.6640625 24 C-62.978786070649704 24.000210213364834, -17.29350964129941 24.00042042672967, 108.6640625 24.001" stroke="#9370DB" stroke-width="1.3" fill="none" stroke-dasharray="0 0" style=""/></g></g></g></g></g><defs><filter id="my-svg-drop-shadow" height="130%" width="130%"><feDropShadow dx="4" dy="4" stdDeviation="0" flood-opacity="0.06" flood-color="#000000"/></filter></defs><defs><filter id="my-svg-drop-shadow-small" height="150%" width="150%"><feDropShadow dx="2" dy="2" stdDeviation="0" flood-opacity="0.06" flood-color="#000000"/></filter></defs></svg>